<svg version="1.1" xmlns="http://www.w3.org/2000/svg" xmlns:xlink="http://www.w3.org/1999/xlink" width="300" height="300" viewBox="0,0,256,256"><g transform="translate(25.6,25.6) scale(0.8,0.8)"><g fill="#3087e5" fill-rule="nonzero" stroke="none" stroke-width="1" stroke-linecap="butt" stroke-linejoin="miter" stroke-miterlimit="10" stroke-dasharray="" stroke-dashoffset="0" font-family="none" style="mix-blend-mode: normal"><g transform="translate(0,0) scale(1.13778,1.13778)"><g transform="translate(20.78118,38.45638) scale(0.99337,1.15156)" id="g20"><path transform="translate(-83.84346,-112.24923) scale(0.9811,0.9811)" d="M169.66085,111.74159c-51.20308,0 -92.71217,27.79346 -92.71217,62.07857c0,34.28122 41.50909,62.07468 92.71217,62.07468c49.4279,0 89.80845,-25.90141 92.54985,-58.53511v-7.07914c-2.7414,-32.6372 -43.12195,-58.539 -92.54985,-58.539z" id="path14" opacity="0.75"></path><path transform="translate(-85.55651,-111.76159)" d="M184.82397,126.95251c-50.39448,0 -91.4175,26.01299 -91.4175,58.01295c0,0.38282 -0.00028,0.73405 0.03097,1.11686c0.95703,31.46091 41.56237,56.89483 91.38654,56.89483c22.02341,0 43.31709,-5.06652 59.98895,-14.27746c0.28516,-0.16015 0.66802,-0.12924 0.89067,0.12467c5.83203,5.64452 24.89461,7.36352 32.86335,7.87524c-1.72266,-0.98828 -3.92312,-2.35918 -6.15358,-4.14433c-1.05078,-0.82813 -2.03797,-1.71898 -2.9286,-2.58226c-2.29686,-2.26171 -4.05079,-4.65253 -5.23047,-7.10565c-1.08204,-2.26563 -1.6881,-4.59444 -1.78576,-6.91866c0,-0.22266 0.06641,-0.41353 0.22267,-0.57369c8.89452,-9.14843 13.58271,-19.63612 13.58271,-30.40955c0,-9.53124 -3.63682,-18.5516 -10.10556,-26.48909c-15.20312,-18.71092 -45.96552,-31.52386 -81.34438,-31.52386z" id="path8" opacity="0.75"></path></g></g></g></g></svg>